<svg width="401" height="211" viewBox="0 0 401 211" fill="none" xmlns="http://www.w3.org/2000/svg">
<g clip-path="url(#clip0_49_21)">
<rect width="401" height="211" rx="22" fill="white"/>
<path d="M26.6011 152.8L30.7611 167.64C31.1344 168.947 31.4811 170.253 31.8011 171.56C32.1478 172.867 32.4544 174.187 32.7211 175.52H32.8011C33.0944 174.187 33.4144 172.867 33.7611 171.56C34.1344 170.253 34.5078 168.947 34.8811 167.64L39.2011 152.8H41.1611L45.5611 167.64C45.9344 168.973 46.3078 170.293 46.6811 171.6C47.0544 172.88 47.4011 174.187 47.7211 175.52H47.8011C48.0944 174.187 48.3878 172.88 48.6811 171.6C49.0011 170.293 49.3478 168.973 49.7211 167.64L53.7611 152.8H55.8811L48.8011 178H46.6811L41.8011 161.12C41.5078 160.16 41.2278 159.2 40.9611 158.24C40.6944 157.253 40.4411 156.267 40.2011 155.28H40.1211C39.8811 156.267 39.6278 157.24 39.3611 158.2C39.1211 159.16 38.8544 160.133 38.5611 161.12L33.8011 178H31.7211L24.4411 152.8H26.6011ZM61.4714 152.8V178H59.3914V152.8H61.4714ZM67.868 152.8H69.868L80.868 169.36C81.4813 170.267 82.0813 171.16 82.668 172.04C83.2546 172.92 83.828 173.813 84.388 174.72H84.468C84.4146 173.707 84.388 172.68 84.388 171.64C84.388 170.6 84.388 169.573 84.388 168.56V152.8H86.388V178H84.388L73.748 162.16C73.028 161.093 72.3346 160 71.668 158.88C71.028 157.76 70.4146 156.64 69.828 155.52H69.748C69.828 158 69.868 160.48 69.868 162.96V178H67.868V152.8ZM100.19 152.8C101.843 152.8 103.377 153.053 104.79 153.56C106.23 154.067 107.47 154.827 108.51 155.84C109.55 156.827 110.363 158.08 110.95 159.6C111.537 161.093 111.83 162.84 111.83 164.84C111.83 167.267 111.483 169.32 110.79 171C110.097 172.68 109.15 174.04 107.95 175.08C106.75 176.12 105.363 176.867 103.79 177.32C102.217 177.773 100.55 178 98.7898 178H92.7898V152.8H100.19ZM94.8698 176.32H98.4298C99.8165 176.32 101.177 176.16 102.51 175.84C103.843 175.493 105.043 174.893 106.11 174.04C107.177 173.16 108.03 171.987 108.67 170.52C109.337 169.027 109.67 167.133 109.67 164.84C109.67 163.213 109.417 161.76 108.91 160.48C108.43 159.2 107.737 158.12 106.83 157.24C105.923 156.333 104.843 155.653 103.59 155.2C102.363 154.72 100.99 154.48 99.4698 154.48H94.8698V176.32ZM126.652 152.48C128.172 152.48 129.599 152.747 130.932 153.28C132.266 153.813 133.426 154.627 134.412 155.72C135.426 156.787 136.212 158.133 136.772 159.76C137.359 161.36 137.652 163.24 137.652 165.4C137.652 167.507 137.359 169.36 136.772 170.96C136.186 172.56 135.386 173.907 134.372 175C133.359 176.093 132.172 176.92 130.812 177.48C129.452 178.04 128.012 178.32 126.492 178.32C124.972 178.32 123.546 178.053 122.212 177.52C120.879 176.987 119.706 176.187 118.692 175.12C117.706 174.027 116.919 172.68 116.332 171.08C115.772 169.453 115.492 167.56 115.492 165.4C115.492 163.293 115.786 161.44 116.372 159.84C116.959 158.24 117.759 156.893 118.772 155.8C119.786 154.707 120.972 153.88 122.332 153.32C123.692 152.76 125.132 152.48 126.652 152.48ZM117.652 165.4C117.652 167.32 117.892 168.987 118.372 170.4C118.879 171.787 119.546 172.947 120.372 173.88C121.199 174.813 122.146 175.507 123.212 175.96C124.306 176.413 125.452 176.64 126.652 176.64C127.826 176.64 128.946 176.413 130.012 175.96C131.079 175.507 132.012 174.813 132.812 173.88C133.639 172.947 134.292 171.787 134.772 170.4C135.252 168.987 135.492 167.32 135.492 165.4C135.492 163.453 135.239 161.773 134.732 160.36C134.252 158.92 133.599 157.747 132.772 156.84C131.946 155.933 130.986 155.267 129.892 154.84C128.826 154.387 127.692 154.16 126.492 154.16C125.319 154.16 124.199 154.387 123.132 154.84C122.066 155.293 121.119 155.987 120.292 156.92C119.492 157.853 118.852 159.027 118.372 160.44C117.892 161.827 117.652 163.48 117.652 165.4ZM142.187 152.8L146.347 167.64C146.72 168.947 147.067 170.253 147.387 171.56C147.734 172.867 148.04 174.187 148.307 175.52H148.387C148.68 174.187 149 172.867 149.347 171.56C149.72 170.253 150.094 168.947 150.467 167.64L154.787 152.8H156.747L161.147 167.64C161.52 168.973 161.894 170.293 162.267 171.6C162.64 172.88 162.987 174.187 163.307 175.52H163.387C163.68 174.187 163.974 172.88 164.267 171.6C164.587 170.293 164.934 168.973 165.307 167.64L169.347 152.8H171.467L164.387 178H162.267L157.387 161.12C157.094 160.16 156.814 159.2 156.547 158.24C156.28 157.253 156.027 156.267 155.787 155.28H155.707C155.467 156.267 155.214 157.24 154.947 158.2C154.707 159.16 154.44 160.133 154.147 161.12L149.387 178H147.307L140.027 152.8H142.187ZM185.336 152.8H188.056L194.456 171.32C194.616 171.8 194.816 172.453 195.056 173.28C195.322 174.08 195.562 174.827 195.776 175.52H195.856C196.042 174.827 196.256 174.08 196.496 173.28C196.762 172.453 196.976 171.813 197.136 171.36L203.456 152.8H206.256L208.856 178H206.776L205.336 163.56C205.202 162.067 205.069 160.6 204.936 159.16C204.802 157.693 204.696 156.213 204.616 154.72H204.536C204.162 155.973 203.736 157.4 203.256 159C202.776 160.573 202.269 162.093 201.736 163.56L196.696 178H194.816L189.736 163.56C188.722 160.68 187.802 157.733 186.976 154.72H186.896C186.789 155.973 186.669 157.387 186.536 158.96C186.429 160.533 186.309 162.067 186.176 163.56L184.736 178H182.736L185.336 152.8ZM222.106 152.8H224.186L233.706 178H231.466L228.706 170.56H217.426L214.666 178H212.466L222.106 152.8ZM218.066 168.88H228.026L224.866 160.24C224.812 160.08 224.719 159.8 224.586 159.4C224.452 159 224.306 158.547 224.146 158.04C223.986 157.533 223.812 157 223.626 156.44C223.466 155.88 223.319 155.36 223.186 154.88H223.106C222.972 155.36 222.812 155.867 222.626 156.4C222.466 156.933 222.292 157.453 222.106 157.96C221.946 158.44 221.786 158.88 221.626 159.28C221.492 159.68 221.386 160 221.306 160.24L218.066 168.88ZM237.946 152.8H239.946L250.946 169.36C251.559 170.267 252.159 171.16 252.746 172.04C253.333 172.92 253.906 173.813 254.466 174.72H254.546C254.493 173.707 254.466 172.68 254.466 171.64C254.466 170.6 254.466 169.573 254.466 168.56V152.8H256.466V178H254.466L243.826 162.16C243.106 161.093 242.413 160 241.746 158.88C241.106 157.76 240.493 156.64 239.906 155.52H239.826C239.906 158 239.946 160.48 239.946 162.96V178H237.946V152.8ZM270.348 152.8H272.428L281.948 178H279.708L276.948 170.56H265.668L262.908 178H260.708L270.348 152.8ZM266.308 168.88H276.268L273.108 160.24C273.055 160.08 272.961 159.8 272.828 159.4C272.695 159 272.548 158.547 272.388 158.04C272.228 157.533 272.055 157 271.868 156.44C271.708 155.88 271.561 155.36 271.428 154.88H271.348C271.215 155.36 271.055 155.867 270.868 156.4C270.708 156.933 270.535 157.453 270.348 157.96C270.188 158.44 270.028 158.88 269.868 159.28C269.735 159.68 269.628 160 269.548 160.24L266.308 168.88ZM296.322 152.48C297.709 152.48 298.936 152.587 300.002 152.8C301.096 153.013 302.122 153.387 303.082 153.92L302.562 155.6C301.629 155.147 300.682 154.8 299.722 154.56C298.762 154.293 297.776 154.16 296.762 154.16C295.402 154.16 294.082 154.36 292.802 154.76C291.549 155.16 290.429 155.813 289.442 156.72C288.482 157.6 287.709 158.76 287.122 160.2C286.562 161.613 286.282 163.36 286.282 165.44C286.282 167.227 286.549 168.813 287.082 170.2C287.642 171.587 288.389 172.76 289.322 173.72C290.256 174.68 291.362 175.413 292.642 175.92C293.922 176.4 295.296 176.64 296.762 176.64C297.802 176.64 298.709 176.573 299.482 176.44C300.282 176.28 300.856 176.107 301.202 175.92V166.96H295.802V165.32H303.282V177.08C302.402 177.453 301.442 177.76 300.402 178C299.362 178.213 298.082 178.32 296.562 178.32C294.882 178.32 293.296 178.04 291.802 177.48C290.309 176.92 288.989 176.107 287.842 175.04C286.722 173.947 285.829 172.6 285.162 171C284.522 169.4 284.202 167.547 284.202 165.44C284.202 163.333 284.509 161.467 285.122 159.84C285.736 158.213 286.576 156.867 287.642 155.8C288.736 154.707 290.016 153.88 291.482 153.32C292.976 152.76 294.589 152.48 296.322 152.48ZM308.805 152.8H323.205V154.48H310.885V164.2H322.165V165.88H310.885V176.32H323.325V178H308.805V152.8ZM328.298 152.8H335.658C336.964 152.8 338.111 152.973 339.098 153.32C340.111 153.667 340.951 154.147 341.618 154.76C342.284 155.373 342.791 156.107 343.138 156.96C343.484 157.813 343.658 158.76 343.658 159.8C343.658 160.76 343.498 161.64 343.178 162.44C342.884 163.213 342.484 163.907 341.978 164.52C341.471 165.107 340.884 165.613 340.218 166.04C339.551 166.44 338.858 166.733 338.138 166.92L345.178 178H342.778L336.218 167.32H330.178V178H328.298V152.8ZM330.178 165.64H334.818C335.778 165.64 336.671 165.52 337.498 165.28C338.324 165.04 339.031 164.68 339.618 164.2C340.204 163.72 340.658 163.12 340.978 162.4C341.324 161.68 341.498 160.84 341.498 159.88C341.498 157.96 340.938 156.587 339.818 155.76C338.698 154.907 337.044 154.48 334.858 154.48H330.178V165.64Z" fill="#808080"/>
<path d="M29.8234 57.44L37.5514 90.032C37.7754 91.0027 38.0367 92.4213 38.3354 94.288C38.7087 96.1547 39.082 98.1707 39.4554 100.336C39.9034 102.427 40.2767 104.517 40.5754 106.608C40.9487 108.699 41.2474 110.416 41.4714 111.76H41.6954C41.9194 110.341 42.1807 108.624 42.4794 106.608C42.8527 104.517 43.226 102.427 43.5994 100.336C44.0474 98.1707 44.458 96.192 44.8314 94.4C45.2794 92.5333 45.6154 91.0773 45.8394 90.032L54.0154 57.44H70.0314L78.2074 89.92C78.4314 90.8907 78.73 92.3093 79.1034 94.176C79.4767 96.0427 79.8874 98.0587 80.3354 100.224C80.7834 102.389 81.194 104.517 81.5674 106.608C81.9407 108.699 82.2394 110.416 82.4634 111.76H82.6874C82.9114 110.341 83.21 108.624 83.5834 106.608C83.9567 104.517 84.33 102.427 84.7034 100.336C85.1514 98.2453 85.562 96.2667 85.9354 94.4C86.3087 92.4587 86.6074 90.9653 86.8314 89.92L94.2234 57.44H109.679L91.6474 128H74.8474L65.7754 91.6C65.0287 88.6133 64.3194 85.664 63.6474 82.752C63.05 79.84 62.4527 76.816 61.8554 73.68H61.6314C61.034 76.816 60.4367 79.8027 59.8394 82.64C59.242 85.4773 58.57 88.4267 57.8234 91.488L49.0874 128H32.6234L14.2554 57.44H29.8234ZM149.148 56.208C154.151 56.208 158.78 57.0293 163.036 58.672C167.292 60.3147 170.951 62.704 174.012 65.84C177.073 68.9013 179.463 72.7093 181.18 77.264C182.972 81.8187 183.868 87.008 183.868 92.832C183.868 98.5067 182.972 103.584 181.18 108.064C179.388 112.544 176.924 116.352 173.788 119.488C170.652 122.624 166.919 125.051 162.588 126.768C158.332 128.411 153.703 129.232 148.7 129.232C143.697 129.232 139.068 128.448 134.812 126.88C130.556 125.237 126.897 122.885 123.836 119.824C120.775 116.688 118.348 112.88 116.556 108.4C114.839 103.845 113.98 98.656 113.98 92.832C113.98 87.1573 114.876 82.08 116.668 77.6C118.46 73.0453 120.924 69.2 124.06 66.064C127.196 62.8533 130.892 60.4267 135.148 58.784C139.479 57.0667 144.145 56.208 149.148 56.208ZM130.22 92.832C130.22 97.0133 130.705 100.672 131.676 103.808C132.721 106.869 134.103 109.445 135.82 111.536C137.537 113.552 139.516 115.083 141.756 116.128C144.071 117.099 146.535 117.584 149.148 117.584C151.687 117.584 154.076 117.099 156.316 116.128C158.631 115.083 160.609 113.552 162.252 111.536C163.895 109.445 165.201 106.869 166.172 103.808C167.143 100.672 167.628 97.0133 167.628 92.832C167.628 88.5013 167.105 84.768 166.06 81.632C165.089 78.496 163.745 75.92 162.028 73.904C160.311 71.8133 158.295 70.2827 155.98 69.312C153.74 68.3413 151.313 67.856 148.7 67.856C146.087 67.856 143.66 68.3787 141.42 69.424C139.18 70.4693 137.239 72.0373 135.596 74.128C133.953 76.144 132.647 78.72 131.676 81.856C130.705 84.992 130.22 88.6507 130.22 92.832ZM196.087 57.44H222.855C226.813 57.44 230.285 58.0373 233.271 59.232C236.333 60.352 238.871 61.92 240.887 63.936C242.903 65.8773 244.397 68.192 245.367 70.88C246.413 73.4933 246.935 76.3307 246.935 79.392C246.935 82.2293 246.487 84.768 245.591 87.008C244.77 89.1733 243.687 91.0773 242.343 92.72C241.074 94.288 239.618 95.632 237.975 96.752C236.407 97.7973 234.877 98.656 233.383 99.328L250.631 128H233.047L219.495 102.016H211.319V128H196.087V57.44ZM211.319 90.256H217.367C221.399 90.256 224.685 89.4347 227.223 87.792C229.837 86.1493 231.143 83.424 231.143 79.616C231.143 76.256 230.098 73.68 228.007 71.888C225.991 70.0213 223.005 69.088 219.047 69.088H211.319V90.256ZM264.552 57.44H283.928L294.008 89.584C294.456 91.0027 294.904 92.5333 295.352 94.176C295.874 95.8187 296.36 97.4613 296.808 99.104C297.256 100.747 297.666 102.352 298.04 103.92C298.413 105.488 298.712 106.944 298.936 108.288H299.384C299.608 107.093 299.906 105.712 300.28 104.144C300.653 102.501 301.064 100.821 301.512 99.104C301.96 97.3867 302.408 95.7067 302.856 94.064C303.304 92.4213 303.714 90.928 304.088 89.584L313.832 57.44H333.208L338.472 128H324.024C323.576 120.235 323.128 112.469 322.68 104.704C322.232 96.9387 321.933 89.0987 321.784 81.184L321.672 72H321.336C320.365 76.1067 319.282 80.4 318.088 84.88C316.968 89.36 315.885 93.28 314.84 96.64L304.872 128H293L282.808 96.528C281.538 92.496 280.344 88.24 279.224 83.76C278.104 79.28 277.208 75.36 276.536 72H276.2C276.2 74.688 276.162 77.5253 276.088 80.512C276.013 83.424 275.901 86.336 275.752 89.248C275.677 92.16 275.565 95.0347 275.416 97.872C275.341 100.635 275.229 103.173 275.08 105.488L273.736 128H259.512L264.552 57.44Z" fill="#333333"/>
<path d="M365 104C358.575 93.8163 350.944 85.6314 342.5 79.3743" stroke="#EBA8A3" stroke-width="40" stroke-linecap="round"/>
<path d="M311 65.3782C322.171 67.6042 332.865 72.2343 342.5 79.3743" stroke="#F6D1CE" stroke-width="40" stroke-linecap="round"/>
<path d="M311 65.3782C299.622 63.1109 287.751 63.3377 276 65.9466" stroke="#EBA8A3" stroke-width="40" stroke-linecap="round"/>
<path d="M242.5 85C264.5 70 267.701 67.7892 276 65.9466" stroke="#F6D1CE" stroke-width="40" stroke-linecap="round"/>
<path d="M242.5 85C236.236 89.2708 225.271 95.8113 212.5 100.548" stroke="#EBA8A3" stroke-width="40" stroke-linecap="round"/>
<path d="M212 101C201.052 105.061 188.777 107.796 177 106.638" stroke="#F6D1CE" stroke-width="40" stroke-linecap="round"/>
<path d="M177.5 106.186C165.398 104.996 153.823 99.6962 144.754 87.5" stroke="#EBA8A3" stroke-width="40" stroke-linecap="round"/>
<path d="M128 38C130.755 61.2482 136.787 77.2853 144.754 88" stroke="#F6D1CE" stroke-width="40" stroke-linecap="round"/>
<path d="M125 53C125 53 126 54 128.5 53.5C131 53 131.5 52 131.5 52" stroke="#333333" stroke-width="3" stroke-linecap="round"/>
<circle cx="133" cy="38" r="3" fill="#333333"/>
<circle cx="118" cy="40" r="3" fill="#333333"/>
<path d="M174.012 65.84C177.073 68.9013 179.463 72.7093 181.18 77.264C182.972 81.8187 183.868 87.008 183.868 92.832C183.868 98.5067 182.972 103.584 181.18 108.064C179.388 112.544 176.924 116.352 173.788 119.488C170.652 122.624 166.919 125.051 162.588 126.768C158.332 128.411 153.703 129.232 148.7 129.232L141.756 116.128C144.071 117.099 146.535 117.584 149.148 117.584C151.687 117.584 154.076 117.099 156.316 116.128C158.631 115.083 160.609 113.552 162.252 111.536C163.895 109.445 165.201 106.869 166.172 103.808C167.143 100.672 167.628 97.0133 167.628 92.832C167.628 88.5013 167.105 84.768 166.06 81.632C165.089 78.496 163.745 75.92 162.028 73.904L174.012 65.84Z" fill="#333333"/>
<path d="M298.936 108.288H299.384C299.608 107.093 299.906 105.712 300.28 104.144C300.653 102.501 301.064 100.821 301.512 99.104C301.96 97.3867 302.408 95.7067 302.856 94.064C303.304 92.4213 303.714 90.928 304.088 89.584L313.832 57.44H333.208L338.472 128H324.024L322.68 104.704C322.232 96.9387 321.933 89.0987 321.784 81.184L321.672 72H321.336C320.365 76.1067 319.282 80.4 318.088 84.88C316.968 89.36 315.885 93.28 314.84 96.64L304.872 128L298.936 108.288Z" fill="#333333"/>
<path fill-rule="evenodd" clip-rule="evenodd" d="M196.087 57.44H222.855C226.813 57.44 230.285 58.0373 233.271 59.232C236.333 60.352 238.871 61.92 240.887 63.936C242.903 65.8773 244.397 68.192 245.367 70.88C246.413 73.4933 246.935 76.3307 246.935 79.392C246.935 82.2293 246.487 84.768 245.591 87.008C244.77 89.1733 243.687 91.0773 242.343 92.72C241.074 94.288 239.618 95.632 237.975 96.752C236.407 97.7973 234.877 98.656 233.383 99.328L250.631 128H233.047L219.495 102.016H211.319V128H196.087V57.44ZM217.367 90.256H211.319V69.088H219.047C223.005 69.088 225.991 70.0213 228.007 71.888C230.098 73.68 231.143 76.256 231.143 79.616C231.143 83.424 229.837 86.1493 227.223 87.792C224.685 89.4347 221.399 90.256 217.367 90.256Z" fill="#333333"/>
</g>
<defs>
<clipPath id="clip0_49_21">
<rect width="401" height="211" rx="22" fill="white"/>
</clipPath>
</defs>
</svg>