<svg width="420" height="244" viewBox="0 0 420 244" fill="none" xmlns="http://www.w3.org/2000/svg">
<rect width="420" height="244" fill="white"/>
<path d="M37.6011 169.8L41.7611 184.64C42.1344 185.947 42.4811 187.253 42.8011 188.56C43.1478 189.867 43.4544 191.187 43.7211 192.52H43.8011C44.0944 191.187 44.4144 189.867 44.7611 188.56C45.1344 187.253 45.5078 185.947 45.8811 184.64L50.2011 169.8H52.1611L56.5611 184.64C56.9344 185.973 57.3078 187.293 57.6811 188.6C58.0544 189.88 58.4011 191.187 58.7211 192.52H58.8011C59.0944 191.187 59.3878 189.88 59.6811 188.6C60.0011 187.293 60.3478 185.973 60.7211 184.64L64.7611 169.8H66.8811L59.8011 195H57.6811L52.8011 178.12C52.5078 177.16 52.2278 176.2 51.9611 175.24C51.6944 174.253 51.4411 173.267 51.2011 172.28H51.1211C50.8811 173.267 50.6278 174.24 50.3611 175.2C50.1211 176.16 49.8544 177.133 49.5611 178.12L44.8011 195H42.7211L35.4411 169.8H37.6011ZM72.4714 169.8V195H70.3914V169.8H72.4714ZM78.868 169.8H80.868L91.868 186.36C92.4813 187.267 93.0813 188.16 93.668 189.04C94.2546 189.92 94.828 190.813 95.388 191.72H95.468C95.4146 190.707 95.388 189.68 95.388 188.64C95.388 187.6 95.388 186.573 95.388 185.56V169.8H97.388V195H95.388L84.748 179.16C84.028 178.093 83.3346 177 82.668 175.88C82.028 174.76 81.4146 173.64 80.828 172.52H80.748C80.828 175 80.868 177.48 80.868 179.96V195H78.868V169.8ZM111.19 169.8C112.843 169.8 114.377 170.053 115.79 170.56C117.23 171.067 118.47 171.827 119.51 172.84C120.55 173.827 121.363 175.08 121.95 176.6C122.537 178.093 122.83 179.84 122.83 181.84C122.83 184.267 122.483 186.32 121.79 188C121.097 189.68 120.15 191.04 118.95 192.08C117.75 193.12 116.363 193.867 114.79 194.32C113.217 194.773 111.55 195 109.79 195H103.79V169.8H111.19ZM105.87 193.32H109.43C110.817 193.32 112.177 193.16 113.51 192.84C114.843 192.493 116.043 191.893 117.11 191.04C118.177 190.16 119.03 188.987 119.67 187.52C120.337 186.027 120.67 184.133 120.67 181.84C120.67 180.213 120.417 178.76 119.91 177.48C119.43 176.2 118.737 175.12 117.83 174.24C116.923 173.333 115.843 172.653 114.59 172.2C113.363 171.72 111.99 171.48 110.47 171.48H105.87V193.32ZM137.652 169.48C139.172 169.48 140.599 169.747 141.932 170.28C143.266 170.813 144.426 171.627 145.412 172.72C146.426 173.787 147.212 175.133 147.772 176.76C148.359 178.36 148.652 180.24 148.652 182.4C148.652 184.507 148.359 186.36 147.772 187.96C147.186 189.56 146.386 190.907 145.372 192C144.359 193.093 143.172 193.92 141.812 194.48C140.452 195.04 139.012 195.32 137.492 195.32C135.972 195.32 134.546 195.053 133.212 194.52C131.879 193.987 130.706 193.187 129.692 192.12C128.706 191.027 127.919 189.68 127.332 188.08C126.772 186.453 126.492 184.56 126.492 182.4C126.492 180.293 126.786 178.44 127.372 176.84C127.959 175.24 128.759 173.893 129.772 172.8C130.786 171.707 131.972 170.88 133.332 170.32C134.692 169.76 136.132 169.48 137.652 169.48ZM128.652 182.4C128.652 184.32 128.892 185.987 129.372 187.4C129.879 188.787 130.546 189.947 131.372 190.88C132.199 191.813 133.146 192.507 134.212 192.96C135.306 193.413 136.452 193.64 137.652 193.64C138.826 193.64 139.946 193.413 141.012 192.96C142.079 192.507 143.012 191.813 143.812 190.88C144.639 189.947 145.292 188.787 145.772 187.4C146.252 185.987 146.492 184.32 146.492 182.4C146.492 180.453 146.239 178.773 145.732 177.36C145.252 175.92 144.599 174.747 143.772 173.84C142.946 172.933 141.986 172.267 140.892 171.84C139.826 171.387 138.692 171.16 137.492 171.16C136.319 171.16 135.199 171.387 134.132 171.84C133.066 172.293 132.119 172.987 131.292 173.92C130.492 174.853 129.852 176.027 129.372 177.44C128.892 178.827 128.652 180.48 128.652 182.4ZM153.187 169.8L157.347 184.64C157.72 185.947 158.067 187.253 158.387 188.56C158.734 189.867 159.04 191.187 159.307 192.52H159.387C159.68 191.187 160 189.867 160.347 188.56C160.72 187.253 161.094 185.947 161.467 184.64L165.787 169.8H167.747L172.147 184.64C172.52 185.973 172.894 187.293 173.267 188.6C173.64 189.88 173.987 191.187 174.307 192.52H174.387C174.68 191.187 174.974 189.88 175.267 188.6C175.587 187.293 175.934 185.973 176.307 184.64L180.347 169.8H182.467L175.387 195H173.267L168.387 178.12C168.094 177.16 167.814 176.2 167.547 175.24C167.28 174.253 167.027 173.267 166.787 172.28H166.707C166.467 173.267 166.214 174.24 165.947 175.2C165.707 176.16 165.44 177.133 165.147 178.12L160.387 195H158.307L151.027 169.8H153.187ZM196.336 169.8H199.056L205.456 188.32C205.616 188.8 205.816 189.453 206.056 190.28C206.322 191.08 206.562 191.827 206.776 192.52H206.856C207.042 191.827 207.256 191.08 207.496 190.28C207.762 189.453 207.976 188.813 208.136 188.36L214.456 169.8H217.256L219.856 195H217.776L216.336 180.56C216.202 179.067 216.069 177.6 215.936 176.16C215.802 174.693 215.696 173.213 215.616 171.72H215.536C215.162 172.973 214.736 174.4 214.256 176C213.776 177.573 213.269 179.093 212.736 180.56L207.696 195H205.816L200.736 180.56C199.722 177.68 198.802 174.733 197.976 171.72H197.896C197.789 172.973 197.669 174.387 197.536 175.96C197.429 177.533 197.309 179.067 197.176 180.56L195.736 195H193.736L196.336 169.8ZM233.106 169.8H235.186L244.706 195H242.466L239.706 187.56H228.426L225.666 195H223.466L233.106 169.8ZM229.066 185.88H239.026L235.866 177.24C235.812 177.08 235.719 176.8 235.586 176.4C235.452 176 235.306 175.547 235.146 175.04C234.986 174.533 234.812 174 234.626 173.44C234.466 172.88 234.319 172.36 234.186 171.88H234.106C233.972 172.36 233.812 172.867 233.626 173.4C233.466 173.933 233.292 174.453 233.106 174.96C232.946 175.44 232.786 175.88 232.626 176.28C232.492 176.68 232.386 177 232.306 177.24L229.066 185.88ZM248.946 169.8H250.946L261.946 186.36C262.559 187.267 263.159 188.16 263.746 189.04C264.333 189.92 264.906 190.813 265.466 191.72H265.546C265.493 190.707 265.466 189.68 265.466 188.64C265.466 187.6 265.466 186.573 265.466 185.56V169.8H267.466V195H265.466L254.826 179.16C254.106 178.093 253.413 177 252.746 175.88C252.106 174.76 251.493 173.64 250.906 172.52H250.826C250.906 175 250.946 177.48 250.946 179.96V195H248.946V169.8ZM281.348 169.8H283.428L292.948 195H290.708L287.948 187.56H276.668L273.908 195H271.708L281.348 169.8ZM277.308 185.88H287.268L284.108 177.24C284.055 177.08 283.961 176.8 283.828 176.4C283.695 176 283.548 175.547 283.388 175.04C283.228 174.533 283.055 174 282.868 173.44C282.708 172.88 282.561 172.36 282.428 171.88H282.348C282.215 172.36 282.055 172.867 281.868 173.4C281.708 173.933 281.535 174.453 281.348 174.96C281.188 175.44 281.028 175.88 280.868 176.28C280.735 176.68 280.628 177 280.548 177.24L277.308 185.88ZM307.322 169.48C308.709 169.48 309.936 169.587 311.002 169.8C312.096 170.013 313.122 170.387 314.082 170.92L313.562 172.6C312.629 172.147 311.682 171.8 310.722 171.56C309.762 171.293 308.776 171.16 307.762 171.16C306.402 171.16 305.082 171.36 303.802 171.76C302.549 172.16 301.429 172.813 300.442 173.72C299.482 174.6 298.709 175.76 298.122 177.2C297.562 178.613 297.282 180.36 297.282 182.44C297.282 184.227 297.549 185.813 298.082 187.2C298.642 188.587 299.389 189.76 300.322 190.72C301.256 191.68 302.362 192.413 303.642 192.92C304.922 193.4 306.296 193.64 307.762 193.64C308.802 193.64 309.709 193.573 310.482 193.44C311.282 193.28 311.856 193.107 312.202 192.92V183.96H306.802V182.32H314.282V194.08C313.402 194.453 312.442 194.76 311.402 195C310.362 195.213 309.082 195.32 307.562 195.32C305.882 195.32 304.296 195.04 302.802 194.48C301.309 193.92 299.989 193.107 298.842 192.04C297.722 190.947 296.829 189.6 296.162 188C295.522 186.4 295.202 184.547 295.202 182.44C295.202 180.333 295.509 178.467 296.122 176.84C296.736 175.213 297.576 173.867 298.642 172.8C299.736 171.707 301.016 170.88 302.482 170.32C303.976 169.76 305.589 169.48 307.322 169.48ZM319.805 169.8H334.205V171.48H321.885V181.2H333.165V182.88H321.885V193.32H334.325V195H319.805V169.8ZM339.298 169.8H346.658C347.964 169.8 349.111 169.973 350.098 170.32C351.111 170.667 351.951 171.147 352.618 171.76C353.284 172.373 353.791 173.107 354.138 173.96C354.484 174.813 354.658 175.76 354.658 176.8C354.658 177.76 354.498 178.64 354.178 179.44C353.884 180.213 353.484 180.907 352.978 181.52C352.471 182.107 351.884 182.613 351.218 183.04C350.551 183.44 349.858 183.733 349.138 183.92L356.178 195H353.778L347.218 184.32H341.178V195H339.298V169.8ZM341.178 182.64H345.818C346.778 182.64 347.671 182.52 348.498 182.28C349.324 182.04 350.031 181.68 350.618 181.2C351.204 180.72 351.658 180.12 351.978 179.4C352.324 178.68 352.498 177.84 352.498 176.88C352.498 174.96 351.938 173.587 350.818 172.76C349.698 171.907 348.044 171.48 345.858 171.48H341.178V182.64Z" fill="#808080"/>
<path d="M40.8234 74.44L48.5514 107.032C48.7754 108.003 49.0367 109.421 49.3354 111.288C49.7087 113.155 50.082 115.171 50.4554 117.336C50.9034 119.427 51.2767 121.517 51.5754 123.608C51.9487 125.699 52.2474 127.416 52.4714 128.76H52.6954C52.9194 127.341 53.1807 125.624 53.4794 123.608C53.8527 121.517 54.226 119.427 54.5994 117.336C55.0474 115.171 55.458 113.192 55.8314 111.4C56.2794 109.533 56.6154 108.077 56.8394 107.032L65.0154 74.44H81.0314L89.2074 106.92C89.4314 107.891 89.73 109.309 90.1034 111.176C90.4767 113.043 90.8874 115.059 91.3354 117.224C91.7834 119.389 92.194 121.517 92.5674 123.608C92.9407 125.699 93.2394 127.416 93.4634 128.76H93.6874C93.9114 127.341 94.21 125.624 94.5834 123.608C94.9567 121.517 95.33 119.427 95.7034 117.336C96.1514 115.245 96.562 113.267 96.9354 111.4C97.3087 109.459 97.6074 107.965 97.8314 106.92L105.223 74.44H120.679L102.647 145H85.8474L76.7754 108.6C76.0287 105.613 75.3194 102.664 74.6474 99.752C74.05 96.84 73.4527 93.816 72.8554 90.68H72.6314C72.034 93.816 71.4367 96.8027 70.8394 99.64C70.242 102.477 69.57 105.427 68.8234 108.488L60.0874 145H43.6234L25.2554 74.44H40.8234ZM160.148 73.208C165.151 73.208 169.78 74.0293 174.036 75.672C178.292 77.3147 181.951 79.704 185.012 82.84C188.073 85.9013 190.463 89.7093 192.18 94.264C193.972 98.8187 194.868 104.008 194.868 109.832C194.868 115.507 193.972 120.584 192.18 125.064C190.388 129.544 187.924 133.352 184.788 136.488C181.652 139.624 177.919 142.051 173.588 143.768C169.332 145.411 164.703 146.232 159.7 146.232C154.697 146.232 150.068 145.448 145.812 143.88C141.556 142.237 137.897 139.885 134.836 136.824C131.775 133.688 129.348 129.88 127.556 125.4C125.839 120.845 124.98 115.656 124.98 109.832C124.98 104.157 125.876 99.08 127.668 94.6C129.46 90.0453 131.924 86.2 135.06 83.064C138.196 79.8533 141.892 77.4267 146.148 75.784C150.479 74.0667 155.145 73.208 160.148 73.208ZM141.22 109.832C141.22 114.013 141.705 117.672 142.676 120.808C143.721 123.869 145.103 126.445 146.82 128.536C148.537 130.552 150.516 132.083 152.756 133.128C155.071 134.099 157.535 134.584 160.148 134.584C162.687 134.584 165.076 134.099 167.316 133.128C169.631 132.083 171.609 130.552 173.252 128.536C174.895 126.445 176.201 123.869 177.172 120.808C178.143 117.672 178.628 114.013 178.628 109.832C178.628 105.501 178.105 101.768 177.06 98.632C176.089 95.496 174.745 92.92 173.028 90.904C171.311 88.8133 169.295 87.2827 166.98 86.312C164.74 85.3413 162.313 84.856 159.7 84.856C157.087 84.856 154.66 85.3787 152.42 86.424C150.18 87.4693 148.239 89.0373 146.596 91.128C144.953 93.144 143.647 95.72 142.676 98.856C141.705 101.992 141.22 105.651 141.22 109.832ZM207.087 74.44H233.855C237.813 74.44 241.285 75.0373 244.271 76.232C247.333 77.352 249.871 78.92 251.887 80.936C253.903 82.8773 255.397 85.192 256.367 87.88C257.413 90.4933 257.935 93.3307 257.935 96.392C257.935 99.2293 257.487 101.768 256.591 104.008C255.77 106.173 254.687 108.077 253.343 109.72C252.074 111.288 250.618 112.632 248.975 113.752C247.407 114.797 245.877 115.656 244.383 116.328L261.631 145H244.047L230.495 119.016H222.319V145H207.087V74.44ZM222.319 107.256H228.367C232.399 107.256 235.685 106.435 238.223 104.792C240.837 103.149 242.143 100.424 242.143 96.616C242.143 93.256 241.098 90.68 239.007 88.888C236.991 87.0213 234.005 86.088 230.047 86.088H222.319V107.256ZM275.552 74.44H294.928L305.008 106.584C305.456 108.003 305.904 109.533 306.352 111.176C306.874 112.819 307.36 114.461 307.808 116.104C308.256 117.747 308.666 119.352 309.04 120.92C309.413 122.488 309.712 123.944 309.936 125.288H310.384C310.608 124.093 310.906 122.712 311.28 121.144C311.653 119.501 312.064 117.821 312.512 116.104C312.96 114.387 313.408 112.707 313.856 111.064C314.304 109.421 314.714 107.928 315.088 106.584L324.832 74.44H344.208L349.472 145H335.024C334.576 137.235 334.128 129.469 333.68 121.704C333.232 113.939 332.933 106.099 332.784 98.184L332.672 89H332.336C331.365 93.1067 330.282 97.4 329.088 101.88C327.968 106.36 326.885 110.28 325.84 113.64L315.872 145H304L293.808 113.528C292.538 109.496 291.344 105.24 290.224 100.76C289.104 96.28 288.208 92.36 287.536 89H287.2C287.2 91.688 287.162 94.5253 287.088 97.512C287.013 100.424 286.901 103.336 286.752 106.248C286.677 109.16 286.565 112.035 286.416 114.872C286.341 117.635 286.229 120.173 286.08 122.488L284.736 145H270.512L275.552 74.44Z" fill="#333333"/>
<path d="M376 121C369.575 110.816 361.944 102.631 353.5 96.3743" stroke="#EBA8A3" stroke-width="40" stroke-linecap="round"/>
<path d="M322 82.3782C333.171 84.6042 343.865 89.2343 353.5 96.3743" stroke="#F6D1CE" stroke-width="40" stroke-linecap="round"/>
<path d="M322 82.3782C310.622 80.1109 298.751 80.3377 287 82.9466" stroke="#EBA8A3" stroke-width="40" stroke-linecap="round"/>
<path d="M253.5 102C275.5 87 278.701 84.7892 287 82.9466" stroke="#F6D1CE" stroke-width="40" stroke-linecap="round"/>
<path d="M253.5 102C247.236 106.271 236.271 112.811 223.5 117.548" stroke="#EBA8A3" stroke-width="40" stroke-linecap="round"/>
<path d="M223 118C212.052 122.061 199.777 124.796 188 123.638" stroke="#F6D1CE" stroke-width="40" stroke-linecap="round"/>
<path d="M188.5 123.186C176.398 121.996 164.823 116.696 155.754 104.5" stroke="#EBA8A3" stroke-width="40" stroke-linecap="round"/>
<path d="M139 55C141.755 78.2482 147.787 94.2853 155.754 105" stroke="#F6D1CE" stroke-width="40" stroke-linecap="round"/>
<path d="M136 70C136 70 137 71 139.5 70.5C142 70 142.5 69 142.5 69" stroke="#333333" stroke-width="3" stroke-linecap="round"/>
<circle cx="144" cy="55" r="3" fill="#333333"/>
<circle cx="129" cy="57" r="3" fill="#333333"/>
<path d="M185.012 82.84C188.073 85.9013 190.463 89.7093 192.18 94.264C193.972 98.8187 194.868 104.008 194.868 109.832C194.868 115.507 193.972 120.584 192.18 125.064C190.388 129.544 187.924 133.352 184.788 136.488C181.652 139.624 177.919 142.051 173.588 143.768C169.332 145.411 164.703 146.232 159.7 146.232L152.756 133.128C155.071 134.099 157.535 134.584 160.148 134.584C162.687 134.584 165.076 134.099 167.316 133.128C169.631 132.083 171.609 130.552 173.252 128.536C174.895 126.445 176.201 123.869 177.172 120.808C178.143 117.672 178.628 114.013 178.628 109.832C178.628 105.501 178.105 101.768 177.06 98.632C176.089 95.496 174.745 92.92 173.028 90.904L185.012 82.84Z" fill="#333333"/>
<path d="M309.936 125.288H310.384C310.608 124.093 310.906 122.712 311.28 121.144C311.653 119.501 312.064 117.821 312.512 116.104C312.96 114.387 313.408 112.707 313.856 111.064C314.304 109.421 314.714 107.928 315.088 106.584L324.832 74.44H344.208L349.472 145H335.024L333.68 121.704C333.232 113.939 332.933 106.099 332.784 98.184L332.672 89H332.336C331.365 93.1067 330.282 97.4 329.088 101.88C327.968 106.36 326.885 110.28 325.84 113.64L315.872 145L309.936 125.288Z" fill="#333333"/>
<path fill-rule="evenodd" clip-rule="evenodd" d="M207.087 74.44H233.855C237.813 74.44 241.285 75.0373 244.271 76.232C247.333 77.352 249.871 78.92 251.887 80.936C253.903 82.8773 255.397 85.192 256.367 87.88C257.413 90.4933 257.935 93.3307 257.935 96.392C257.935 99.2293 257.487 101.768 256.591 104.008C255.77 106.173 254.687 108.077 253.343 109.72C252.074 111.288 250.618 112.632 248.975 113.752C247.407 114.797 245.877 115.656 244.383 116.328L261.631 145H244.047L230.495 119.016H222.319V145H207.087V74.44ZM228.367 107.256H222.319V86.088H230.047C234.005 86.088 236.991 87.0213 239.007 88.888C241.098 90.68 242.143 93.256 242.143 96.616C242.143 100.424 240.837 103.149 238.223 104.792C235.685 106.435 232.399 107.256 228.367 107.256Z" fill="#333333"/>
</svg>
