<?xml version="1.0" encoding="UTF-8" standalone="no"?>
<!-- Created with Inkscape (http://www.inkscape.org/) -->

<svg
   width="65.858299mm"
   height="60.041615mm"
   viewBox="0 0 65.858299 60.041615"
   version="1.1"
   id="svg5"
   inkscape:version="1.1.1 (3bf5ae0d25, 2021-09-20, custom)"
   sodipodi:docname="worm.svg"
   xmlns:inkscape="http://www.inkscape.org/namespaces/inkscape"
   xmlns:sodipodi="http://sodipodi.sourceforge.net/DTD/sodipodi-0.dtd"
   xmlns="http://www.w3.org/2000/svg"
   xmlns:svg="http://www.w3.org/2000/svg">
  <sodipodi:namedview
     id="namedview7"
     pagecolor="#ffffff"
     bordercolor="#666666"
     borderopacity="1.0"
     inkscape:pageshadow="2"
     inkscape:pageopacity="0.0"
     inkscape:pagecheckerboard="0"
     inkscape:document-units="mm"
     showgrid="false"
     inkscape:zoom="0.7560223"
     inkscape:cx="90.605793"
     inkscape:cy="-72.08782"
     inkscape:window-width="1520"
     inkscape:window-height="1037"
     inkscape:window-x="0"
     inkscape:window-y="0"
     inkscape:window-maximized="1"
     inkscape:current-layer="layer1" />
  <defs
     id="defs2" />
  <g
     inkscape:label="Layer 1"
     inkscape:groupmode="layer"
     id="layer1"
     transform="translate(-14.481673,-50.650435)">
    <path
       style="fill:#00aa88;stroke-width:0.264583"
       d="m 50.856189,101.29765 c 0.256342,2.53088 -0.73348,4.90882 -2.627534,6.31239 -1.384636,1.02605 -2.06499,1.27362 -3.785191,1.37768 -2.700238,0.16329 -5.144495,-1.32736 -6.511973,-3.97135 -0.629293,-1.21673 -0.862281,-1.39999 -3.508725,-2.76009 -1.55908,-0.80125 -3.402241,-1.91284 -4.095916,-2.470202 -2.746901,-2.207099 -4.702739,-5.356002 -5.501726,-8.857789 -0.879489,-3.854565 -0.493038,-6.7245 1.541383,-11.44688 1.627179,-3.777066 1.535077,-3.99573 -2.563281,-6.085503 -4.712162,-2.402768 -7.172982,-4.918949 -8.671239,-8.866321 -0.694541,-1.829878 -0.753703,-2.230129 -0.542739,-3.66922 0.454476,-3.099626 2.727971,-5.388795 5.739618,-5.779172 2.913096,-0.3776 5.383014,0.915847 6.924809,3.626395 0.881149,1.549094 1.009066,1.654734 3.690472,3.047624 4.465794,2.319818 6.423117,4.145211 8.356514,7.793271 0.653249,1.232599 1.029176,2.298461 1.319677,3.741565 0.770445,3.827685 0.370447,6.628869 -1.610265,11.276663 -1.609289,3.776247 -1.526833,3.971598 2.555176,6.053034 3.352905,1.709665 5.528226,3.466564 6.983256,5.640001 1.159144,1.73148 2.203793,4.012024 2.307706,5.037874 z m -5.43449,-2.819834 C 44.145686,96.627836 42.910384,95.6744 39.5505,93.946323 c -3.48297,-1.791393 -4.245749,-2.47661 -4.968992,-4.463702 -0.725541,-1.993407 -0.576845,-3.040988 0.951037,-6.700033 0.696651,-1.668361 1.370328,-3.599916 1.497058,-4.292342 0.371649,-2.030535 0.01394,-4.482026 -0.989933,-6.784375 -1.264913,-2.901054 -3.04798,-4.586292 -6.874454,-6.497286 -3.408085,-1.70204 -4.025597,-2.21038 -4.969014,-4.090422 -0.56747,-1.130868 -0.901841,-1.485313 -1.796561,-1.904431 -0.891879,-0.417788 -1.296377,-0.44324 -2.143558,-0.134891 -0.856059,0.31158 -1.141122,0.587848 -1.581895,1.53308 -0.480982,1.031474 -0.485243,1.297 -0.04043,2.519127 0.650794,1.788043 2.30629,3.936952 3.931255,5.102922 0.715939,0.513719 2.402838,1.483534 3.748656,2.155146 3.07038,1.532233 3.766755,2.189412 4.521584,4.267115 0.749174,2.061263 0.639525,2.799592 -0.961164,6.487637 -0.697424,1.606908 -1.375604,3.528663 -1.507056,4.270565 -0.702548,3.96509 0.982358,8.601963 4.048505,11.140719 0.602512,0.498941 2.359761,1.53857 3.905004,2.310282 3.188471,1.592366 3.947213,2.199166 4.757029,3.804356 1.172874,2.32483 2.271633,2.90877 4.171879,2.21713 0.700447,-0.25494 1.02991,-0.59346 1.445068,-1.48327 0.464847,-0.99687 0.477734,-1.31764 0.09515,-2.36877 -0.243373,-0.66867 -0.858852,-1.819396 -1.367709,-2.557162 z"
       id="path836" />
    <path
       style="fill:#00aa88;stroke-width:0.264583"
       d="m 54.152697,106.45692 c -1.043441,2.31997 -3.089623,3.88443 -5.431705,4.15292 -1.712159,0.19627 -2.425145,0.0705 -3.966913,-0.69949 -2.42012,-1.2087 -3.791584,-3.72177 -3.653858,-6.69528 0.06338,-1.36836 -0.04676,-1.64356 -1.6586,-4.14467 -0.949579,-1.47344 -1.990008,-3.357682 -2.312068,-4.187209 -1.275337,-3.284853 -1.394689,-6.989804 -0.335739,-10.421934 1.165623,-3.777897 2.935266,-6.070107 7.058317,-9.142598 3.297711,-2.457445 3.32728,-2.692865 0.822886,-6.55184 -2.879469,-4.43694 -3.752511,-7.846426 -3.076353,-12.014078 0.313449,-1.931992 0.462339,-2.308201 1.364583,-3.449008 1.9434,-2.457117 5.05689,-3.302848 7.860241,-2.135102 2.711616,1.129538 4.203904,3.484654 4.183863,6.602955 -0.01145,1.78213 0.04651,1.937575 1.672231,4.484556 2.707582,4.241919 3.489976,6.801416 3.340318,10.927428 -0.05057,1.394087 -0.257938,2.505114 -0.727909,3.900129 -1.246617,3.700094 -2.993618,5.925992 -7.032863,8.960744 -3.281808,2.465681 -3.308074,2.676088 -0.813669,6.519669 2.04887,3.157065 3.054303,5.766248 3.227676,8.376018 0.138112,2.07907 -0.09747,4.5764 -0.520403,5.51678 z m -3.296486,-5.1593 c -0.180071,-2.24013 -0.773158,-3.68348 -2.818864,-6.859981 -2.120644,-3.292878 -2.438622,-4.267682 -2.071422,-6.350176 0.368367,-2.089112 1.020931,-2.921995 4.173639,-5.32688 1.437497,-1.096517 2.986696,-2.432454 3.44266,-2.968748 1.337126,-1.572671 2.253085,-3.874578 2.53488,-6.370408 0.355081,-3.144843 -0.346482,-5.495835 -2.704808,-9.064041 -2.100468,-3.178052 -2.381079,-3.927044 -2.258082,-6.026917 0.07399,-1.263095 -0.03836,-1.73724 -0.603651,-2.547566 -0.563496,-0.807755 -0.901076,-1.032045 -1.78893,-1.188597 -0.897159,-0.158194 -1.282165,-0.06147 -2.136501,0.536737 -0.93228,0.652792 -1.068734,0.880614 -1.294578,2.161414 -0.330417,1.873887 0.02883,4.562645 0.853106,6.384887 0.363162,0.802864 1.339151,2.486197 2.168859,3.74074 1.892909,2.862142 2.167399,3.779463 1.782248,5.956221 -0.381828,2.159693 -0.845951,2.744281 -4.076211,5.137877 -1.407441,1.042911 -2.955639,2.36811 -3.44043,2.94489 -2.590971,3.082595 -3.450236,7.940697 -2.064252,11.672397 0.272321,0.733353 1.274328,2.512329 2.226694,3.953271 1.965114,2.97325 2.318801,3.87814 2.21753,5.67317 -0.146677,2.59981 0.512905,3.65489 2.504387,4.00604 0.734072,0.12944 1.188658,0.001 1.993099,-0.56201 0.901007,-0.6309 1.072552,-0.90225 1.266786,-2.00384 0.123568,-0.70077 0.165916,-2.00508 0.09411,-2.89842 z"
       id="path936" />
    <path
       style="fill:#00aa88;stroke-width:0.264583"
       d="m 54.152732,106.45691 c -2.063632,1.48743 -4.617909,1.81921 -6.780454,0.88068 -1.580911,-0.6861 -2.135489,-1.15151 -3.085703,-2.58924 -1.491533,-2.25683 -1.422724,-5.11893 0.183305,-7.6252 0.739068,-1.15334 0.781286,-1.44675 0.635946,-4.418689 -0.08564,-1.750831 -0.04456,-3.902847 0.0913,-4.782269 0.537951,-3.482434 2.287066,-6.750692 4.920208,-9.193528 2.898408,-2.688943 5.577068,-3.789235 10.683981,-4.388565 4.084624,-0.479354 4.227941,-0.668449 3.988559,-5.262617 -0.275222,-5.282237 0.673445,-8.671459 3.34284,-11.942673 1.237451,-1.51643 1.554498,-1.767791 2.906268,-2.304637 2.911592,-1.156225 6.030819,-0.331905 7.87472,2.081069 1.783558,2.334016 1.89836,5.11975 0.321853,7.810257 -0.90098,1.537645 -0.928509,1.701244 -0.794088,4.719855 0.223876,5.027401 -0.378299,7.635187 -2.570913,11.133588 -0.740839,1.182031 -1.475937,2.040525 -2.580452,3.013658 -2.929648,2.581066 -5.555545,3.63525 -10.57101,4.2438 -4.07497,0.494439 -4.20292,0.663523 -3.964492,5.239364 0.195841,3.758527 -0.238021,6.520867 -1.392759,8.867677 -0.919927,1.86958 -2.372611,3.91455 -3.209073,4.51748 z m -0.275191,-6.11633 c 0.964119,-2.03004 1.172166,-3.57657 0.988783,-7.35035 -0.190091,-3.912038 0.02193,-4.915233 1.381184,-6.535124 1.363571,-1.625042 2.34515,-2.020057 6.277918,-2.526395 1.793167,-0.230863 3.802781,-0.613218 4.465805,-0.849681 1.944321,-0.69341 3.888517,-2.22894 5.380474,-4.249495 1.879931,-2.545974 2.447856,-4.932773 2.189589,-9.202094 -0.230033,-3.802507 -0.09855,-4.59146 1.057898,-6.348505 0.695625,-1.056877 0.835399,-1.523673 0.751006,-2.508081 -0.08412,-0.981285 -0.264331,-1.344317 -0.95496,-1.92382 -0.697865,-0.585581 -1.079652,-0.694318 -2.118633,-0.603424 -1.133774,0.0992 -1.365858,0.228268 -2.201844,1.224551 -1.223093,1.457625 -2.256355,3.96578 -2.453632,5.956028 -0.08692,0.876882 -0.08336,2.822684 0.0079,4.324005 0.208236,3.425142 -0.01271,4.35681 -1.434638,6.049362 -1.41052,1.679435 -2.104756,1.953642 -6.099041,2.411427 -1.740336,0.199466 -3.743713,0.573024 -4.451945,0.830134 -3.785144,1.374121 -6.95834,5.151727 -7.623894,9.076467 -0.130816,0.771266 -0.152563,2.812904 -0.04826,4.53698 0.215214,3.557465 0.06907,4.517965 -0.916148,6.021875 -1.426932,2.17817 -1.383254,3.42167 0.165842,4.72153 0.571006,0.47913 1.028909,0.59519 2.007081,0.50983 1.095744,-0.0959 1.37998,-0.24509 2.098989,-1.10199 0.4574,-0.5451 1.146228,-1.65349 1.53071,-2.46304 z"
       id="path938" />
    <rect
       style="fill:#00aa88;stroke-width:0.264583"
       id="rect988"
       width="5.0738349"
       height="6.5749702"
       x="40.400974"
       y="93.405296"
       rx="2.0000012"
       ry="2.5362599" />
    <rect
       style="fill:#00aa88;stroke-width:0.264583"
       id="rect990"
       width="4.7702918"
       height="10.475509"
       x="47.669888"
       y="94.957375"
       rx="2.0000012"
       ry="5.072433" />
  </g>
</svg>
